inDegrees=no
num_controls=7
num_derivatives=13
num_iterations=121
num_multipliers=7
num_parameters=0
num_slacks=7
num_states=26
objective=0.545135
objective_accelerations=0.042052
objective_balance=0.003890
objective_effort=0.041065
objective_height=0.448683
objective_ligament=0.009446
solver_duration=1286.974319
status=Solve_Succeeded
success=true
DataType=double
version=3
OpenSimVersion=4.5
endheader
time	/jointset/ground_pelvis/pelvis_tilt/value	/jointset/ground_pelvis/pelvis_tx/value	/jointset/ground_pelvis/pelvis_ty/value	/jointset/hip_r/hip_flexion_r/value	/jointset/hip_r/hip_adduction_r/value	/jointset/hip_r/hip_rotation_r/value	/jointset/back/lumbar_extension/value	/jointset/patellofemoral_r/patellar_flexion_r/value	/jointset/knee_r/knee_flexion_r/value	/jointset/knee_r/knee_adduction_r/value	/jointset/knee_r/knee_rotation_r/value	/jointset/ankle_r/ankle_angle_r/value	/jointset/subtalar_r/subtalar_angle_r/value	/jointset/ground_pelvis/pelvis_tilt/speed	/jointset/ground_pelvis/pelvis_tx/speed	/jointset/ground_pelvis/pelvis_ty/speed	/jointset/hip_r/hip_flexion_r/speed	/jointset/hip_r/hip_adduction_r/speed	/jointset/hip_r/hip_rotation_r/speed	/jointset/back/lumbar_extension/speed	/jointset/patellofemoral_r/patellar_flexion_r/speed	/jointset/knee_r/knee_flexion_r/speed	/jointset/knee_r/knee_adduction_r/speed	/jointset/knee_r/knee_rotation_r/speed	/jointset/ankle_r/ankle_angle_r/speed	/jointset/subtalar_r/subtalar_angle_r/speed	/forceset/tau_hip_flexion_r	/forceset/tau_hip_adduction_r	/forceset/tau_hip_rotation_r	/forceset/tau_knee_flexion_r	/forceset/tau_ankle_angle_r	/forceset/tau_subtalar_angle_r	/forceset/tau_lumbar_extension	lambda_cid13_p0	lambda_cid14_p0	lambda_cid14_p1	lambda_cid14_p2	lambda_cid14_p3	lambda_cid14_p4	lambda_cid14_p5	/jointset/ground_pelvis/pelvis_tilt/accel	/jointset/ground_pelvis/pelvis_tx/accel	/jointset/ground_pelvis/pelvis_ty/accel	/jointset/hip_r/hip_flexion_r/accel	/jointset/hip_r/hip_adduction_r/accel	/jointset/hip_r/hip_rotation_r/accel	/jointset/back/lumbar_extension/accel	/jointset/patellofemoral_r/patellar_flexion_r/accel	/jointset/knee_r/knee_flexion_r/accel	/jointset/knee_r/knee_adduction_r/accel	/jointset/knee_r/knee_rotation_r/accel	/jointset/ankle_r/ankle_angle_r/accel	/jointset/subtalar_r/subtalar_angle_r/accel	gamma_cid13_p0	gamma_cid14_p0	gamma_cid14_p1	gamma_cid14_p2	gamma_cid14_p3	gamma_cid14_p4	gamma_cid14_p5
1	-0.4071185913195459	-0.04917966869675253	0.7005068392037059	1.481234744471979	-0.2306990955182812	-0.06223971232147105	-0.436321413795122	1.164460009087476	1.164460009088001	-0.02852671957266559	0.1745287112973532	0.2780965438304749	0.05885967364432259	-0.001475350784427564	0.002713178682481748	0.01320595811962838	-0.03553337124484224	0.001147722939711424	-0.008954278319290698	-0.0001349074394773193	-0.04533846650078447	-0.04533846650077773	0.001911008409836802	1.898521517520513e-05	-0.009734097624352612	-0.001159817452147548	-0.3443457439695461	0.0085703847474483	0.01215658446633008	-0.3909717027092555	0.05941904159158249	0.002021414936385366	0.3335405728522994	-2.842488309094798	-29.46818215608402	-3.287834889454578	-0.1511678786368718	13.68282539219797	-784.7161491827754	55.12144154933269	1.736416675809047	0.2155960058364101	1.446844577645063	-5.261630146680375	0.06628405689774643	-0.7203619622689811	-0.02429918721611916	-4.269066210855708	-4.269066210855422	0.3578445219340454	0.007907542641348766	-0.8933119970236105	-0.1616041578243333	5.208187832316139e-10	-6.485237985868745e-11	7.31351303308393e-09	6.296587365790549e-09	1.333133548879947e-09	-3.32186041775165e-09	5.936891172949161e-09
1.01	-0.4070472223687831	-0.0491417781014979	0.7007111007526179	1.480617223160794	-0.2306842213847918	-0.06236470010100428	-0.4363231764266419	1.163793307268391	1.163793307268458	-0.02848937302176722	0.1745288953167212	0.277954486074477	0.05884008292428644	0.0157522392737767	0.004867261542635631	0.02764535121193328	-0.08797644098057111	0.00182736972285408	-0.01604113784572386	-0.000219340829596854	-0.08800862187067267	-0.08800862187065613	0.005562969945444743	1.719582952269172e-05	-0.01868224551007866	-0.002759329464498024	-0.3441894831036481	0.008629709119718746	0.01216690028005532	-0.3908390180687912	0.05955942738650359	0.001955971622098371	0.333446880079552	-2.868247802288761	-29.41782275119865	-3.309398951903196	-0.1454916105246098	13.62211772557079	-784.5976040969589	55.06673190673396	1.716395281099929	0.2156626641579917	1.442335479075222	-5.236477645051655	0.06884724662471928	-0.702527418830123	-0.0007737096130029301	-4.266999017298954	-4.266999017297691	0.3695741781613692	-0.004313125140123677	-0.8962854566284526	-0.1592716137318108	6.690581939760009e-10	6.247496747094983e-10	1.404256904238087e-08	1.102628895804526e-08	3.198560919621191e-10	-5.618428323863886e-09	1.066145558867775e-08
1.02	-0.4068034844953829	-0.04908227703003111	0.7010597259932632	1.479475104700645	-0.2306625423319509	-0.06256049237000108	-0.4363258350509959	1.162699702132156	1.162699702131768	-0.02841536641375375	0.1745290432530369	0.2777228029851657	0.05880446770596851	0.03299843374293249	0.007035273924911786	0.0420786964663136	-0.1404528010376026	0.002508706810084099	-0.02311517621214183	-0.0003141060078416622	-0.1307191299303046	-0.1307191299302807	0.009243019832540745	1.176860500736214e-05	-0.0276591642870587	-0.004364717108504757	-0.3440332222377563	0.008689033491989949	0.01217721609375556	-0.3907063334283279	0.05969981318142584	0.001890528307813219	0.3333531873067985	-2.910758270486543	-29.37618467114504	-3.329813939123973	-0.1430553736737702	13.57507515272249	-784.6160617362542	55.02629790428279	1.740137557999349	0.2183819102608643	1.445635010060148	-5.268288210940899	0.06662211771521773	-0.7177977302659211	-0.02636554484111102	-4.277136748804446	-4.277136748804656	0.3634621922316771	0.007179974868777883	-0.8990661752744077	-0.1627792841555868	1.001373536250456e-09	7.420060607670342e-10	2.039167515248437e-08	1.588245174716417e-08	6.794428000364536e-10	-8.703341824972988e-09	1.523767163856507e-08
1.03	-0.4063871510266704	-0.04900095505316732	0.7015526555010061	1.477807927193001	-0.2306340543491127	-0.06282691354860648	-0.4363292252833799	1.161178750455565	1.161178750455238	-0.02830433322424286	0.1745291178900358	0.2774012494569177	0.05875276462914216	0.05027585944634123	0.009238607175735387	0.0565064158072598	-0.1930018516615156	0.003188302527256579	-0.03016204019477359	-0.0003393041255906051	-0.1734821725732985	-0.1734821725732757	0.01297635145772655	1.60241441676762e-06	-0.03665195561372604	-0.005976729972179754	-0.343918846567538	0.008700466442589346	0.01220117211226678	-0.3904350463502442	0.05991395497285797	0.001856510878257003	0.3333936788602043	-2.970381886341421	-29.3041016082601	-3.325380374646026	-0.1512850945546311	13.43250323972978	-784.608609797501	55.02301620123261	1.722685666439264	0.2227321045456429	1.44121962685737	-5.251085745321654	0.06854474447329852	-0.6970787280889861	0.01309850613400641	-4.277533368945228	-4.277533368945263	0.3801824929731246	-0.005343715437724618	-0.8994487145616005	-0.160530299614758	1.33556720435685e-09	8.534221849009884e-10	2.673690422280018e-08	2.073990495665925e-08	1.053038326120921e-09	-1.179629966888819e-08	1.981237392961727e-08
